<svg width="14" height="14" viewBox="0 0 14 14" fill="none" xmlns="http://www.w3.org/2000/svg">
<path d="M0 9.83333C0 11.03 0.97005 12 2.16667 12H5.44341L5.68061 11.0512C5.68489 11.0341 5.68936 11.017 5.694 11H2.16667C1.52233 11 1 10.4777 1 9.83333V5.33333H3.16667L3.28962 5.3299C4.42903 5.26616 5.33333 4.32202 5.33333 3.16667V1H9.83333C10.4777 1 11 1.52233 11 2.16667V5.48827C11.3193 5.36129 11.6624 5.31236 12 5.34148V2.16667C12 0.97005 11.03 0 9.83333 0H5.24755C4.84972 0 4.46819 0.158035 4.18689 0.43934L0.43934 4.18689C0.158035 4.46819 0 4.84972 0 5.24755V9.83333ZM3.16667 4.33333H1.70733L4.33333 1.70733V3.16667L4.32947 3.26235C4.2808 3.86193 3.77878 4.33333 3.16667 4.33333ZM10.7332 6.44631L6.79829 10.3813C6.56886 10.6107 6.40611 10.8981 6.32742 11.2129L6.0223 12.4334C5.88961 12.9641 6.37037 13.4449 6.90113 13.3122L8.1216 13.0071C8.43637 12.9284 8.72383 12.7656 8.95325 12.5362L12.8882 8.60127C13.4833 8.00619 13.4833 7.04138 12.8882 6.44631C12.2931 5.85123 11.3283 5.85123 10.7332 6.44631Z" fill="white"/>
</svg>
