<svg width="16" height="16" viewBox="0 0 16 16" fill="none" xmlns="http://www.w3.org/2000/svg">
<path d="M10.5002 1.33325C11.2941 1.33325 11.9439 1.95003 11.9967 2.73055L12.0002 2.83325V3.33259L13.1668 3.33325C13.9607 3.33325 14.6106 3.95003 14.6634 4.73055L14.6668 4.83325V11.1666C14.6668 11.9605 14.0501 12.6104 13.2695 12.6632L13.1668 12.6666L12.0002 12.6666V13.1666C12.0002 13.9605 11.3834 14.6103 10.6029 14.6631L10.5002 14.6666H5.50016C4.70625 14.6666 4.0564 14.0498 4.00362 13.2693L4.00016 13.1666V12.6666L2.8335 12.6666C2.03959 12.6666 1.38973 12.0498 1.33696 11.2693L1.3335 11.1666V4.83325C1.3335 4.03934 1.95027 3.38949 2.7308 3.33671L2.8335 3.33325L4.00016 3.33259V2.83325C4.00016 2.03934 4.61694 1.38949 5.39746 1.33671L5.50016 1.33325H10.5002ZM10.5002 2.33325H5.50016C5.24703 2.33325 5.03784 2.52135 5.00473 2.76541L5.00016 2.83325V13.1666C5.00016 13.4197 5.18827 13.6289 5.43232 13.662L5.50016 13.6666H10.5002C10.7533 13.6666 10.9625 13.4785 10.9956 13.2344L11.0002 13.1666V2.83325C11.0002 2.58012 10.8121 2.37092 10.568 2.33782L10.5002 2.33325ZM4.00016 4.33259L2.8335 4.33325C2.58037 4.33325 2.37117 4.52135 2.33806 4.76541L2.3335 4.83325V11.1666C2.3335 11.4197 2.5216 11.6289 2.76565 11.6621L2.8335 11.6666H4.00016V4.33259ZM13.1668 4.33325L12.0002 4.33259V11.6666H13.1668C13.42 11.6666 13.6292 11.4785 13.6623 11.2345L13.6668 11.1666V4.83325C13.6668 4.55711 13.443 4.33325 13.1668 4.33325Z" fill="white"/>
</svg>
