<svg width="64" height="65" viewBox="0 0 64 65" fill="none" xmlns="http://www.w3.org/2000/svg">
<g opacity="0.54">
<path d="M42 5.52637C45.1757 5.52637 47.7751 7.99346 47.9862 11.1156L48 11.5264V13.5237L52.6667 13.5264C55.8423 13.5264 58.4418 15.9935 58.6529 19.1156L58.6667 19.5264V44.8598C58.6667 48.0355 56.1996 50.6349 53.0775 50.846L52.6667 50.8598L48 50.8597V52.8597C48 56.0353 45.5329 58.6348 42.4108 58.8459L42 58.8597H22C18.8244 58.8597 16.225 56.3926 16.0139 53.2705L16 52.8597V50.8597L11.3334 50.8598C8.15774 50.8598 5.55832 48.3927 5.34722 45.2706L5.33337 44.8598V19.5264C5.33337 16.3507 7.80047 13.7513 10.9226 13.5402L11.3334 13.5264L16 13.5237V11.5264C16 8.35073 18.4671 5.75131 21.5892 5.54021L22 5.52637H42ZM42 9.52637H22C20.9875 9.52637 20.1507 10.2788 20.0183 11.255L20 11.5264V52.8597C20 53.8722 20.7525 54.709 21.7287 54.8414L22 54.8597H42C43.0126 54.8597 43.8493 54.1073 43.9818 53.1311L44 52.8597V11.5264C44 10.5138 43.2476 9.67706 42.2714 9.54463L42 9.52637ZM16 17.5237L11.3334 17.5264C10.3209 17.5264 9.48407 18.2788 9.35163 19.255L9.33337 19.5264V44.8598C9.33337 45.8724 10.0858 46.7091 11.062 46.8416L11.3334 46.8598H16V17.5237ZM52.6667 17.5264L48 17.5237V46.8598H52.6667C53.6792 46.8598 54.516 46.1074 54.6484 45.1312L54.6667 44.8598V19.5264C54.6667 18.4218 53.7713 17.5264 52.6667 17.5264Z" fill="white"/>
</g>
</svg>
