<svg xmlns="http://www.w3.org/2000/svg" width="128" height="122" viewBox="0 0 128 122" version="1.1"><path d="M 46.995 1.877 C 25.330 7.728, 6.951 25.847, 1.585 46.644 C -0.381 54.267, -0.447 68.732, 1.453 75.869 C 2.239 78.822, 4.033 83.592, 5.441 86.469 C 8.621 92.968, 8.628 95.365, 5.500 107.403 C 4.125 112.695, 3 117.311, 3 117.661 C 3 118.735, 19.409 117.208, 25.873 115.533 C 31.907 113.969, 32.026 113.980, 36.969 116.485 C 44.697 120.400, 52.408 122.001, 63.460 121.985 C 83.306 121.956, 96.485 116.593, 110.025 103.036 C 119.079 93.969, 123.931 85.913, 126.273 76.054 C 126.933 73.274, 127.817 71, 128.237 71 C 128.656 71, 129 66.200, 129 60.333 C 129 54.467, 128.688 49.979, 128.307 50.360 C 127.926 50.741, 127.024 48.750, 126.304 45.935 C 123.714 35.814, 118.972 27.973, 110 18.975 C 100.605 9.553, 92.893 5.056, 80.593 1.827 C 71.515 -0.557, 55.920 -0.533, 46.995 1.877 M 53.322 4.032 C 45.854 5.374, 35.755 9.392, 29.632 13.456 C 23.120 17.778, 14.250 26.962, 10.755 33 C 1.676 48.686, 0.873 68.709, 8.674 84.928 L 12.254 92.372 10.993 99.436 C 10.299 103.321, 9.117 108.244, 8.366 110.376 C 7.615 112.507, 7 114.334, 7 114.435 C 7 115.069, 22.049 112.837, 26.501 111.543 C 31.875 109.980, 31.910 109.985, 37.696 112.902 C 46.628 117.405, 51.445 118.403, 64 118.351 C 73.640 118.311, 76.807 117.876, 83.578 115.662 C 102.161 109.588, 116.756 95.206, 122.265 77.542 C 125.296 67.820, 125.296 54.180, 122.265 44.458 C 116.748 26.767, 101.178 11.705, 82.567 6.056 C 74.579 3.632, 60.840 2.681, 53.322 4.032 M 0.374 61.500 C 0.376 67.550, 0.541 69.896, 0.740 66.713 C 0.939 63.531, 0.937 58.581, 0.736 55.713 C 0.535 52.846, 0.372 55.450, 0.374 61.500" stroke="none" fill="#fbfbfc" fill-rule="evenodd"/><path d="M 49.601 7.528 C 24.462 13.891, 5.944 36.774, 6.015 61.386 C 6.035 68.524, 8.431 77.931, 12.060 85.118 L 15.138 91.215 13.435 99.358 C 12.498 103.836, 11.528 108.443, 11.279 109.596 C 10.844 111.609, 11.063 111.660, 16.786 110.878 C 20.063 110.429, 24.814 109.360, 27.343 108.502 C 31.895 106.956, 32.001 106.971, 38.098 110.050 C 49.459 115.785, 65.004 117.502, 77.947 114.451 C 103.086 108.526, 122 85.577, 122 61 C 122 38.799, 107.477 18.455, 85.500 9.871 C 78.636 7.189, 75.938 6.695, 66.500 6.391 C 58.976 6.147, 53.636 6.507, 49.601 7.528 M 43.500 41.408 C 29.471 47.625, 26.705 68.017, 38.564 77.792 C 43.880 82.174, 49.941 83.269, 66.581 82.852 C 80.240 82.511, 80.810 82.409, 85.581 79.459 C 92.279 75.318, 95.250 69.835, 95.250 61.614 C 95.250 52.292, 91.280 45.649, 83.300 41.617 C 78.209 39.045, 77 39.459, 77 43.773 C 77 47.055, 77.453 47.789, 80.482 49.421 C 85.107 51.911, 88.373 58.494, 87.443 63.451 C 86.563 68.141, 82.362 72.529, 77.442 73.894 C 72.530 75.258, 53.722 75.328, 48.943 74.001 C 37.685 70.873, 35.566 55.729, 45.562 49.831 C 48.545 48.071, 49 47.286, 49 43.901 C 49 39.619, 48.277 39.291, 43.500 41.408 M 50.011 59.487 C 48.349 61.489, 49.456 64, 52 64 C 53.135 64, 54.324 63.319, 54.643 62.487 C 55.218 60.990, 53.457 58, 52 58 C 51.585 58, 50.689 58.669, 50.011 59.487 M 62.011 59.487 C 60.229 61.634, 61.548 64.203, 64.235 63.820 C 66.798 63.455, 67.873 60.168, 65.848 58.885 C 63.974 57.697, 63.425 57.783, 62.011 59.487 M 73.105 59.373 C 71.439 61.381, 72.860 64.162, 75.367 63.803 C 77.823 63.451, 78.821 60.135, 76.848 58.885 C 74.995 57.710, 74.423 57.785, 73.105 59.373" stroke="none" fill="#8a31f0" fill-rule="evenodd"/></svg>