<?xml version="1.0" encoding="UTF-8"?>
<svg xmlns="http://www.w3.org/2000/svg" xmlns:xlink="http://www.w3.org/1999/xlink" width="32px" height="32px" viewBox="0 0 32 32" version="1.1">
<g id="surface1">
<path style=" stroke:none;fill-rule:evenodd;fill:rgb(98.431373%,98.431373%,98.431373%);fill-opacity:1;" d="M 13.195312 0.203125 C 10.773438 0.636719 8.332031 1.722656 6.285156 3.269531 C 2.25 6.320312 0 10.921875 0 16.125 C 0 18.816406 0.476562 20.882812 1.585938 23.03125 C 2.136719 24.101562 2.152344 24.160156 2.070312 24.910156 C 1.941406 26.046875 1.574219 27.738281 1.089844 29.40625 C 0.667969 30.875 0.667969 30.875 1.785156 30.875 C 3.242188 30.875 5.203125 30.578125 6.710938 30.128906 C 7.917969 29.773438 7.917969 29.773438 8.867188 30.320312 C 10.0625 31.011719 12.105469 31.691406 13.5625 31.882812 C 15.332031 32.117188 18.28125 31.972656 19.769531 31.578125 C 22.851562 30.757812 25.246094 29.398438 27.382812 27.25 C 29.660156 24.960938 31.292969 21.808594 31.769531 18.777344 C 31.855469 18.222656 31.972656 17.796875 32.027344 17.828125 C 32.082031 17.863281 32.125 17.039062 32.125 16 C 32.125 14.957031 32.078125 14.140625 32.015625 14.179688 C 31.957031 14.214844 31.867188 13.902344 31.820312 13.484375 C 31.773438 13.066406 31.59375 12.238281 31.421875 11.644531 C 29.957031 6.554688 26.070312 2.476562 21.125 0.824219 C 20.402344 0.582031 19.3125 0.300781 18.703125 0.191406 C 17.320312 -0.046875 14.546875 -0.0429688 13.195312 0.203125 M 13.6875 0.945312 C 7.285156 2.027344 2.433594 6.613281 1.066406 12.875 C 0.953125 13.390625 0.832031 14.570312 0.792969 15.5 C 0.679688 18.3125 1.148438 20.519531 2.320312 22.734375 C 2.753906 23.546875 2.875 23.910156 2.875 24.371094 C 2.875 25.171875 2.570312 26.882812 2.121094 28.613281 C 1.917969 29.394531 1.75 30.0625 1.75 30.09375 C 1.75 30.328125 5.921875 29.601562 7.296875 29.128906 C 8 28.886719 8 28.886719 9.042969 29.503906 C 10.347656 30.269531 11.921875 30.800781 13.640625 31.054688 C 15.316406 31.300781 16.433594 31.300781 18.085938 31.054688 C 19.945312 30.78125 21.339844 30.34375 22.898438 29.542969 C 26.511719 27.699219 29.183594 24.621094 30.425781 20.882812 C 32.84375 13.59375 29.636719 5.796875 22.8125 2.382812 C 20.035156 0.992188 16.601562 0.453125 13.6875 0.945312 M 0.0507812 16.125 C 0.0507812 17.191406 0.0703125 17.625 0.09375 17.09375 C 0.117188 16.5625 0.117188 15.6875 0.09375 15.15625 C 0.0703125 14.625 0.0507812 15.058594 0.0507812 16.125 "/>
<path style=" stroke:none;fill-rule:evenodd;fill:rgb(54.117647%,19.215686%,94.117647%);fill-opacity:1;" d="M 13.117188 1.878906 C 11.597656 2.203125 10.605469 2.554688 9.296875 3.242188 C 4.976562 5.503906 2.164062 9.640625 1.621094 14.519531 C 1.320312 17.257812 1.855469 20.011719 3.210938 22.652344 C 3.773438 23.742188 3.773438 23.742188 3.621094 24.902344 C 3.539062 25.539062 3.3125 26.710938 3.113281 27.5 C 2.914062 28.289062 2.75 29.003906 2.75 29.085938 C 2.75 29.183594 2.90625 29.214844 3.21875 29.171875 C 4.214844 29.035156 6.222656 28.578125 7.058594 28.292969 C 7.9375 27.992188 7.9375 27.992188 9.25 28.671875 C 15.140625 31.714844 21.960938 30.578125 26.511719 25.792969 C 28.0625 24.160156 29.054688 22.5 29.742188 20.394531 C 30.257812 18.8125 30.429688 17.640625 30.414062 15.8125 C 30.375 11.34375 28.394531 7.359375 24.855469 4.625 C 22.207031 2.578125 19.3125 1.613281 15.890625 1.636719 C 14.757812 1.644531 13.828125 1.726562 13.117188 1.878906 M 11.484375 10.539062 C 8.882812 11.425781 7.347656 14.058594 7.742188 16.957031 C 8.054688 19.265625 9.5 20.960938 11.6875 21.59375 C 12.515625 21.835938 17.460938 21.957031 18.839844 21.769531 C 20.792969 21.507812 22.101562 20.75 22.996094 19.367188 C 23.683594 18.304688 23.914062 17.320312 23.855469 15.734375 C 23.8125 14.597656 23.757812 14.332031 23.410156 13.59375 C 22.875 12.453125 22.46875 11.953125 21.570312 11.324219 C 20.8125 10.792969 20.421875 10.601562 19.65625 10.382812 C 19.25 10.265625 19.25 10.265625 19.25 11.4375 C 19.25 12.605469 19.25 12.605469 19.675781 12.746094 C 20.335938 12.964844 21.179688 13.78125 21.488281 14.503906 C 22.292969 16.371094 21.636719 18.285156 19.902344 19.144531 C 19.339844 19.421875 19.167969 19.4375 16.09375 19.476562 C 12.347656 19.527344 11.90625 19.453125 10.953125 18.613281 C 10.070312 17.835938 9.816406 17.269531 9.816406 16.0625 C 9.8125 15.183594 9.859375 14.980469 10.183594 14.390625 C 10.585938 13.664062 11.359375 12.957031 11.980469 12.738281 C 12.375 12.601562 12.375 12.601562 12.375 11.425781 C 12.375 10.777344 12.359375 10.25 12.34375 10.253906 C 12.328125 10.253906 11.941406 10.382812 11.484375 10.539062 M 12.441406 15.496094 C 11.972656 16.011719 12.324219 16.875 13 16.875 C 13.429688 16.875 13.75 16.519531 13.75 16.039062 C 13.75 15.332031 12.90625 14.980469 12.441406 15.496094 M 15.457031 15.480469 C 14.988281 15.996094 15.417969 16.933594 16.089844 16.851562 C 16.507812 16.800781 16.929688 16.246094 16.816406 15.890625 C 16.617188 15.257812 15.863281 15.027344 15.457031 15.480469 M 18.398438 15.332031 C 17.867188 15.554688 18.007812 16.683594 18.585938 16.828125 C 19.3125 17.011719 19.851562 16.292969 19.484375 15.632812 C 19.308594 15.316406 18.785156 15.171875 18.398438 15.332031 "/>
</g>
</svg>
