<svg width="28" height="28" viewBox="0 0 28 28" fill="none" xmlns="http://www.w3.org/2000/svg">
<path d="M9 10C9 9.44771 9.44772 9 10 9H18C18.5523 9 19 9.44771 19 10C19 10.5523 18.5523 11 18 11H10C9.44772 11 9 10.5523 9 10ZM10 14C9.44772 14 9 14.4477 9 15C9 15.5523 9.44772 16 10 16H18C18.5523 16 19 15.5523 19 15C19 14.4477 18.5523 14 18 14H10ZM9 20C9 19.4477 9.44772 19 10 19H13C13.5523 19 14 19.4477 14 20C14 20.5523 13.5523 21 13 21H10C9.44772 21 9 20.5523 9 20ZM10 2C10 1.44772 9.55228 1 9 1C8.44772 1 8 1.44772 8 2L8 3H7C5.34315 3 4 4.34315 4 6V24C4 25.6569 5.34315 27 7 27H16.222C16.9726 27 17.6959 26.7186 18.2492 26.2115L23.0272 21.8317C23.6471 21.2634 24 20.4611 24 19.6202V6C24 4.34315 22.6569 3 21 3H20V2C20 1.44772 19.5523 1 19 1C18.4477 1 18 1.44772 18 2V3H15V2C15 1.44772 14.5523 1 14 1C13.4477 1 13 1.44772 13 2V3H10V2ZM7 5H21C21.5523 5 22 5.44772 22 6V19H18C16.6193 19 15.5 20.1193 15.5 21.5V25H7C6.44771 25 6 24.5523 6 24V6C6 5.44772 6.44772 5 7 5ZM17.5 24.1851V21.5C17.5 21.2239 17.7239 21 18 21H20.9747L17.5 24.1851Z" fill="#655AE4"/>
</svg>
